# xmcd
#
# Track frame offsets: 
#        150
#        13415
#        26724
#        39124
#        53336
#        65993
#        79121
#        90377
#        102360
#        115136
#        129980
#        142720
#        156412
#        168872
#        180719
#        193049
#        206339
#        219998
#        233371
#        246035
#        258594
#        270786
#        279997
#        293501
#        306280
#
# Disc length: 4252 seconds
#
# Revision: 0
# Processed by: cddbd v1.4PL0 Copyright (c) Steve Scherf et al.
# Submitted via: ExactAudioCopy v0.95a3
#
DISCID=49109a19
DTITLE=John Lee Hooker - The Classic Early Years 1948 - 1951 CD 3
DYEAR=2002
DGENRE=Blues
TTITLE0=No Friend Around
TTITLE1=Wednesday Evening
TTITLE2=Canal Street Blues
TTITLE3=Playin' The Races
TTITLE4=Huckle Up Baby
TTITLE5=Let Your Daddy Ride
TTITLE6=Goin' On Highway 51
TTITLE7=The Moon Above
TTITLE8=She Left Me By Myself
TTITLE9=No Mortgage One My Soul
TTITLE10=My Baby's Got Something 
TTITLE11=Decoration Day Blues
TTITLE12=Boogie Chillen No. 2
TTITLE13=Roll 'n' Roll
TTITLE14=Crying All Night
TTITLE15=One More Time
TTITLE16=I Don't Be Welcome Here
TTITLE17=Welfare Blues
TTITLE18=Turnin' Gray Blues
TTITLE19=The Story Of A Married Woman
TTITLE20=Mad Man Blues
TTITLE21=Boogie Now
TTITLE22=Thinking Blues
TTITLE23=Don't You Remember Me
TTITLE24=Give Me Your Phone Number
EXTD=
EXTT0=
EXTT1=
EXTT2=
EXTT3=
EXTT4=
EXTT5=
EXTT6=
EXTT7=
EXTT8=
EXTT9=
EXTT10=
EXTT11=
EXTT12=
EXTT13=
EXTT14=
EXTT15=
EXTT16=
EXTT17=
EXTT18=
EXTT19=
EXTT20=
EXTT21=
EXTT22=
EXTT23=
EXTT24=
PLAYORDER=
